<svg width="72" height="72" viewBox="0 0 72 72" fill="none" xmlns="http://www.w3.org/2000/svg">
<g clip-path="url(#clip0_18913_1810)">
<g clip-path="url(#clip1_18913_1810)">
<circle cx="36.3333" cy="36.3333" r="33.3333" fill="#1C1E22"/>
<path d="M36.775 26.654C36.775 25.1043 38.0448 23.8418 39.6034 23.8418H44.6645V17H42.1339H39.6034C34.2415 17 29.8936 21.3229 29.8936 26.654C29.8936 28.0451 30.1915 29.3674 30.7241 30.561C26.5597 32.3111 23.7945 36.0297 23.1506 40.7355C22.3984 45.9021 24.4806 51.4754 29.015 54.1679C33.062 56.7018 39.3898 56.5343 42.808 53.0191V55.3526H49.8518V29.466H39.6064C38.0479 29.466 36.775 28.2037 36.775 26.654ZM42.9644 36.3109V42.8087C42.9644 46.3987 40.0368 49.3065 36.4291 49.3065C32.8213 49.3065 29.8936 46.3956 29.8936 42.8087C29.8936 39.2217 32.8213 36.3109 36.4291 36.3109H42.9644Z" fill="#BFF009"/>
</g>
</g>
<defs>
<clipPath id="clip0_18913_1810">
<rect width="72" height="72" fill="white"/>
</clipPath>
<clipPath id="clip1_18913_1810">
<rect width="72" height="72" fill="white"/>
</clipPath>
</defs>
</svg>
